<svg xmlns="http://www.w3.org/2000/svg" width="157.8" height="143.282" viewBox="0 0 157.8 143.282">
  <g id="berlin-er-verkehrsbetriebe-bvg-vector-logo" transform="translate(-25.7 -54.9)">
    <path id="Path_4497" data-name="Path 4497" d="M104.416,198.156h-.158l-.158-.026-.158-.026-.158-.053-.184-.026-.132-.053-.158-.053-.158-.053-.158-.079-.158-.079-.131-.053-.289-.184-.289-.158-.263-.184-.237-.158-.21-.184-.21-.158-.342-.289-.237-.237-2.262-2.288-2.709-2.762-3.1-3.13-3.445-3.5-3.735-3.787L81.4,176.616l-4.155-4.208-4.287-4.366-4.392-4.418-4.392-4.471-4.392-4.471L55.5,150.316l-4.208-4.234-4-4.076-3.761-3.813-3.5-3.577-1-1.026-.947-1.026-.92-1.026-.868-1.052-.842-1.052-.815-1.052-.763-1.078-.736-1.052-.684-1.1-.684-1.078-.631-1.1-.579-1.1-.552-1.131-.552-1.1-.473-1.157-.447-1.131-.421-1.157L27.725,115l-.368-1.157-.316-1.21-.263-1.21-.263-1.21-.21-1.236-.184-1.236-.158-1.262-.105-1.262-.079-1.289-.053-1.289-.026-1.315V99.978l.053-1.341.079-1.341.21-2.183.289-2.157.421-2.1.473-2.1L27.8,86.7l.684-2,.763-1.972.815-1.92.947-1.867,1-1.841,1.078-1.762L34.247,73.6l1.236-1.657,1.289-1.6,1.368-1.525,1.446-1.473,1.5-1.42L42.663,64.6l1.631-1.262,1.683-1.183,1.736-1.1,1.815-1.026,1.841-.947,1.92-.842,1.946-.763,2-.658,2.051-.579,2.078-.473,2.13-.368,2.157-.263,2.209-.184,2.235-.053,1.42.026,1.394.079,1.368.132,1.315.184,1.289.237,1.262.289,1.236.316,1.21.368,1.157.421L82.9,57.4l1.131.473,1.078.552,1.1.579,1.052.579,1.052.657,1.026.657,1,.71,1,.71.973.763.973.789.973.815.947.842.947.842.947.868.947.894.921.921.947.92.921.947,1.867,1.92,1.894,1.972,1.867-1.972,1.894-1.92.921-.947.947-.92.92-.921.947-.894.921-.868.947-.842.973-.842.973-.815.947-.789,1-.763,1-.71,1-.71,1.026-.657,1.052-.657L122.983,59l1.078-.579,1.1-.552L126.3,57.4l1.157-.447,1.157-.421,1.21-.368,1.236-.316,1.262-.289,1.289-.237,1.315-.184,1.368-.132,1.394-.079,1.42-.026,2.236.053,2.209.184,2.157.263,2.13.368,2.078.473,2.051.579,2,.658,1.946.763,1.894.842,1.867.947,1.788,1.026,1.762,1.1,1.683,1.183,1.631,1.262,1.578,1.315,1.5,1.42,1.42,1.473,1.394,1.525,1.289,1.6,1.236,1.657,1.157,1.736,1.078,1.762,1,1.841.947,1.867.815,1.92.763,1.972.684,2,.552,2.051.5,2.1.395,2.1.316,2.157.21,2.183.079,1.341.053,1.341v1.341l-.026,1.315-.053,1.289-.079,1.289-.105,1.262-.158,1.262-.184,1.236-.21,1.236-.263,1.21-.289,1.21-.316,1.21L181.475,115l-.395,1.184-.421,1.157-.447,1.131-.5,1.157-.526,1.1-.552,1.131-.579,1.1-.631,1.1-.684,1.078-.684,1.1-.736,1.052-.763,1.078-.815,1.052-.842,1.052-.868,1.052-.92,1.026-.973,1.026-.973,1.026-3.5,3.577-3.761,3.813-4.024,4.076-4.182,4.234-4.287,4.366-4.392,4.471-4.392,4.471-4.392,4.418-4.287,4.366-4.155,4.208-3.971,4.024-3.735,3.787-3.445,3.5-3.1,3.13-2.709,2.762-2.262,2.288-.263.237-.316.289-.21.158-.237.184-.237.158-.237.184-.289.158-.289.184-.289.132-.316.132-.158.053-.158.053-.158.026-.158.053-.158.026-.158.026h-.184l-.158.026Z" fill="#fff"/>
    <path id="Path_4498" data-name="Path 4498" d="M104.416,198.156h-.158l-.158-.026-.158-.026-.158-.053-.184-.026-.132-.053-.158-.053-.158-.053-.158-.079-.158-.079-.131-.053-.289-.184-.289-.158-.263-.184-.237-.158-.21-.184-.21-.158-.342-.289-.237-.237-2.262-2.288-2.709-2.762-3.1-3.13-3.445-3.5-3.735-3.787L81.4,176.616l-4.155-4.208-4.287-4.366-4.392-4.418-4.392-4.471-4.392-4.471L55.5,150.316l-4.208-4.234-4-4.076-3.761-3.813-3.5-3.577-1-1.026-.947-1.026-.92-1.026-.868-1.052-.842-1.052-.815-1.052-.763-1.078-.736-1.052-.684-1.1-.684-1.078-.631-1.1-.579-1.1-.552-1.131-.552-1.1-.473-1.157-.447-1.131-.421-1.157L27.725,115l-.368-1.157-.316-1.21-.263-1.21-.263-1.21-.21-1.236-.184-1.236-.158-1.262-.105-1.262-.079-1.289-.053-1.289-.026-1.315V99.978l.053-1.341.079-1.341.21-2.183.289-2.157.421-2.1.473-2.1L27.8,86.7l.684-2,.763-1.972.815-1.92.947-1.867,1-1.841,1.078-1.762L34.247,73.6l1.236-1.657,1.289-1.6,1.368-1.525,1.446-1.473,1.5-1.42L42.663,64.6l1.631-1.262,1.683-1.183,1.736-1.1,1.815-1.026,1.841-.947,1.92-.842,1.946-.763,2-.658,2.051-.579,2.078-.473,2.13-.368,2.157-.263,2.209-.184,2.235-.053,1.42.026,1.394.079,1.368.132,1.315.184,1.289.237,1.262.289,1.236.316,1.21.368,1.157.421L82.9,57.4l1.131.473,1.078.552,1.1.579,1.052.579,1.052.657,1.026.657,1,.71,1,.71.973.763.973.789.973.815.947.842.947.842.947.868.947.894.921.921.947.92.921.947,1.867,1.92,1.894,1.972,1.867-1.972,1.894-1.92.921-.947.947-.92.92-.921.947-.894.921-.868.947-.842.973-.842.973-.815.947-.789,1-.763,1-.71,1-.71,1.026-.657,1.052-.657L122.983,59l1.078-.579,1.1-.552L126.3,57.4l1.157-.447,1.157-.421,1.21-.368,1.236-.316,1.262-.289,1.289-.237,1.315-.184,1.368-.132,1.394-.079,1.42-.026,2.236.053,2.209.184,2.157.263,2.13.368,2.078.473,2.051.579,2,.658,1.946.763,1.894.842,1.867.947,1.788,1.026,1.762,1.1,1.683,1.183,1.631,1.262,1.578,1.315,1.5,1.42,1.42,1.473,1.394,1.525,1.289,1.6,1.236,1.657,1.157,1.736,1.078,1.762,1,1.841.947,1.867.815,1.92.763,1.972.684,2,.552,2.051.5,2.1.395,2.1.316,2.157.21,2.183.079,1.341.053,1.341v1.341l-.026,1.315-.053,1.289-.079,1.289-.105,1.262-.158,1.262-.184,1.236-.21,1.236-.263,1.21-.289,1.21-.316,1.21L181.475,115l-.395,1.184-.421,1.157-.447,1.131-.5,1.157-.526,1.1-.552,1.131-.579,1.1-.631,1.1-.684,1.078-.684,1.1-.736,1.052-.763,1.078-.815,1.052-.842,1.052-.868,1.052-.92,1.026-.973,1.026-.973,1.026-3.5,3.577-3.761,3.813-4.024,4.076-4.182,4.234-4.287,4.366-4.392,4.471-4.392,4.471-4.392,4.418-4.287,4.366-4.155,4.208-3.971,4.024-3.735,3.787-3.445,3.5-3.1,3.13-2.709,2.762-2.262,2.288-.263.237-.316.289-.21.158-.237.184-.237.158-.237.184-.289.158-.289.184-.289.132-.316.132-.158.053-.158.053-.158.026-.158.053-.158.026-.158.026h-.184l-.158.026Z" fill="#fddf00"/>
    <path id="Path_4499" data-name="Path 4499" d="M193.951,254.01l-.289-.026-.289-.026-.263-.053-.105-.053-.132-.026-.132-.026-.105-.053-.105-.053-.105-.053-.105-.079-.105-.053-.079-.079-.105-.079-.079-.079-.079-.105-.079-.079-.053-.105-.079-.105-.053-.132-.053-.105-.026-.132-.053-.158-.026-.132v-.158l-.026-.158-.026-.158V220.477l.026-.132.026-.132v-.132l.026-.132.053-.132.026-.132.053-.132.053-.132.079-.105.053-.105.079-.132.079-.079.079-.105.105-.105.079-.105.105-.079.105-.079.105-.079.105-.105.105-.053.132-.053.132-.079.105-.053.132-.053.132-.053.158-.026.131-.026.132-.026h.158l.158-.026h.158l2.893,1.92,1.026,2.972V232.97l.894,2.183-.894,2.577v11.388l-.579,3.235-3.34,1.657Z" transform="translate(-122.121 -120.131)"/>
    <path id="Path_4500" data-name="Path 4500" d="M202.3,254.01l1.368-3.419,2.551-1.473h2.814l.342-.026.316-.026.289-.053.289-.079.263-.079.237-.105.237-.079.21-.132.21-.132.184-.131.158-.158.158-.184.132-.158.132-.184.132-.21.105-.184.079-.21.105-.21.053-.237.079-.237.053-.237.053-.237.026-.263.053-.237.026-.263V244.8l.026-.289.026-.526v-1.157l-.026-.579-.026-.289v-.289l-.026-.237-.053-.263-.053-.263-.026-.263-.079-.237-.079-.237-.079-.21-.079-.21-.132-.21-.105-.184-.132-.21-.132-.158-.158-.184-.184-.132-.184-.158-.21-.132-.21-.131-.263-.105-.263-.105-.263-.079-.316-.079-.316-.053-.342-.053-.342-.026-.395-.026h-2.314l-1.262-2.577,1.262-2.183h2.051l.395-.026.368-.053.342-.053.342-.079.289-.079.289-.079.237-.105.237-.132.237-.132.21-.132.158-.158.184-.158.131-.184.158-.158.105-.184.105-.184.105-.21.079-.21.079-.21.053-.21.053-.21.053-.21.026-.21.026-.237.026-.21.026-.237v-.237l.026-.421v-.447l-.026-.657v-.6l-.026-.289-.026-.263-.026-.263-.053-.263-.053-.237-.053-.21-.053-.21-.053-.21-.105-.184-.079-.184-.079-.158-.132-.158-.105-.132-.132-.158-.158-.105-.158-.105-.158-.105-.184-.105-.21-.079-.21-.079-.21-.053-.237-.053-.263-.053-.289-.053-.289-.026h-.316l-.316-.026h-2.393l-2.946-1.5L202.3,217.9h7.837l.736.053.684.053.657.105.631.079.579.132.552.158.5.184.473.184.447.21.421.21.368.263.368.263.316.263.289.289.289.316.237.316.21.342.21.342.184.368.158.368.132.368.105.395.105.421.079.395.079.421.053.421.053.421.026.447.026.421v.447l.026.447v.342l-.026.368-.026.342-.026.342-.026.342-.053.342-.053.342-.053.316-.079.316-.105.316-.105.316-.105.316-.132.289-.132.289-.132.289-.158.263-.184.289-.184.237-.21.263-.21.237-.237.21-.263.237-.263.21-.289.184-.289.184-.342.184-.316.158-.368.158-.368.132-.395.132-.421.105-.447.105.473.026.473.053.421.079.421.105.395.105.368.158.368.132.342.184.342.184.289.21.289.21.289.237.263.237.237.263.237.263.21.263.184.316.184.289.158.289.158.316.132.342.131.316.105.316.105.342.079.342.079.342.079.368.026.342.053.342.026.342V244.2l-.026.526-.053.526-.079.526-.079.5-.105.5-.105.473-.132.473-.158.473-.184.447-.184.447-.237.447-.237.395-.289.421-.289.368-.316.368-.368.342-.368.342-.421.316-.447.289-.473.263-.5.263-.552.21-.579.21-.6.184-.658.131-.684.132-.71.105-.763.079-.815.053H202.3Z" transform="translate(-130.154 -120.131)"/>
    <path id="Path_4501" data-name="Path 4501" d="M291.993,253.667h-.579l-.263-.026-.263-.026-.237-.026-.237-.053-.237-.079-.21-.053-.21-.079-.21-.079-.184-.079-.184-.105-.184-.105-.184-.105-.158-.132-.158-.105-.158-.158-.132-.158-.131-.132-.132-.158-.131-.184-.105-.158-.105-.184-.105-.21-.105-.184-.105-.21-.079-.21-.079-.237-.079-.237-.079-.237-.079-.237-.053-.237L280.184,221.9l-.053-.237-.053-.263-.026-.237-.026-.237-.026-.237v-.473l.026-.237.026-.21.026-.21.053-.21.079-.21.053-.21.079-.184.079-.184.105-.158.105-.184.105-.158.132-.158.132-.132.158-.132.158-.132.158-.105.158-.105.184-.105.184-.079.21-.053.184-.053.21-.053.237-.026.237-.026h.526l.316.026.131.026.132.026.158.053.132.026.131.053.132.053.158.053.132.053.105.079.132.053.132.105.105.079.131.105.105.105.105.105.105.105.079.132.105.132.105.132.079.158.079.158.079.158.079.158.079.184.053.184.053.184.053.21.053.21,4.339,20.382.158.736.132.736.105.763.105.763.105.736.079.71.079.658.053.6.053-.6.079-.658.105-.71.079-.736.132-.763.105-.763.132-.736.132-.736L296.753,220l.026-.184.053-.184.053-.158.053-.184.053-.158.079-.158.053-.158.079-.158.079-.132.079-.131.079-.132.105-.132.079-.132.105-.105.105-.105.105-.105.105-.105.105-.079.132-.079.105-.079.132-.079.132-.079.132-.026.132-.079.158-.026.132-.053.158-.026.158-.053h.132l.158-.026h.736l.184.026.184.053.184.053.184.026.184.079.158.079.158.079.158.105.158.105.158.105.132.105.132.132.131.132.105.158.105.158.079.158.105.158.079.184.079.184.053.184.053.21.026.21.026.21.026.237.026.21-.026.263v.237l-.026.237-.053.263-.053.263L297.016,249.2l-.079.289-.053.263-.079.263-.079.237-.105.263-.079.21-.105.237-.105.21-.132.21-.105.184-.132.184-.131.184-.132.184-.131.158-.158.158-.132.132-.184.132-.158.132-.158.132-.184.105-.184.105-.184.079-.21.079-.184.079-.21.053-.21.079-.237.053-.21.026-.237.026-.237.026h-.5Z" transform="translate(-187.419 -119.394)"/>
    <path id="Path_4502" data-name="Path 4502" d="M391.876,253.3H390.9l-.921-.053-.92-.079-.815-.132-.815-.158-.763-.184-.684-.237-.684-.263-.631-.289-.6-.342-.552-.394-.526-.395-.473-.447-.447-.473-.395-.526-.394-.552-.342-.579-.342-.631-.289-.657-.263-.684-.21-.736-.21-.763-.184-.815-.158-.842-.158-.894-.105-.921-.105-.947-.079-.973-.053-1.026-.026-1.078-.026-1.1-.026-1.131.026-1.21.053-1.157.079-1.1.105-1.078.131-1.026.184-.973.184-.947.237-.921.263-.868.263-.815.316-.789.342-.736.368-.71.368-.658.421-.631.447-.579.473-.526.473-.526.5-.473.552-.421.552-.421.579-.342.6-.342.631-.289.631-.237.684-.237.684-.184.684-.132.736-.132.736-.079.763-.053h1.552l.447.026.473.053.526.053.526.079.552.079.552.105.552.132.552.132.289.079.263.079.263.105.263.105.263.079.263.132.237.105.237.132.237.131.21.132.21.132.184.158.158.158.184.21.079.079.079.132.053.132.079.132.079.132.053.132.053.158.053.158.026.184.053.184v.684l-.026.132-.026.158-.026.132-.053.132-.053.158-.053.132-.053.105-.053.132-.079.132-.079.105-.079.105-.079.105-.105.105-.105.105-.079.105-.105.079-.105.079-.132.079-.105.079-.105.053-.132.053-.132.079-.132.053-.132.026-.132.053-.132.026-.132.026h-.132l-.158.026H398.4l-.158-.026h-.131l-.132-.026-.289-.053-.316-.079-.6-.158-.684-.21-.368-.105-.395-.079-.395-.105-.447-.079-.473-.079-.473-.053h-.263l-.289-.026h-.263l-.289-.026-.394.026-.342.026-.368.026-.368.053-.342.079-.342.105-.316.105-.316.158-.316.158-.289.184-.263.21-.289.21-.263.263-.263.289-.21.342-.237.342-.237.395-.184.395-.21.473-.158.473-.184.5-.158.552-.131.6-.132.631-.105.684-.105.71-.079.763-.053.789-.079.842-.026.894-.026.921v1.894l.026.868.026.842.053.789.053.763.079.71.079.658.105.631.132.6.132.552.132.5.158.5.184.447.184.421.184.394.21.342.237.342.237.316.263.263.263.237.263.237.316.184.316.184.316.132.342.132.342.132.368.079.394.079.395.053.395.026.421.026h.894l.368-.026.342-.026.316-.026.263-.053.21-.026.21-.053.158-.053V237.151h-2.525l-.158-.026-.131-.026-.132-.026-.158-.053-.132-.026-.131-.053-.132-.053-.105-.053-.105-.053-.132-.079-.079-.079-.105-.053-.105-.079-.079-.105-.105-.079-.079-.105-.053-.079-.079-.105-.053-.105-.079-.132-.026-.105-.053-.132-.053-.132-.026-.105-.026-.158-.026-.132v-.158l-.026-.132v-.316l.026-.158V234.1l.026-.132.026-.158.026-.131.026-.132.053-.132.053-.131.053-.132.053-.105.053-.105.079-.105.079-.105.079-.079.079-.105.079-.079.105-.079.105-.053.105-.079.132-.053.105-.079.132-.026.132-.053.132-.053.158-.026.132-.026.158-.026.158-.026.158-.026h6.68l.184.026.158.026.158.026.158.026.131.026.132.053.132.053.132.053.105.053.105.079.105.053.105.105.079.079.079.079.079.105.079.105.053.105.053.132.079.105.053.132.026.158.053.158.026.132.026.158.026.184v.158l.053.368v11.125l-.026.473-.026.473-.026.447-.079.447-.079.421-.105.395-.132.395-.132.368-.158.342-.184.342-.184.316-.21.289-.237.316-.263.263-.263.237-.289.263-.316.21-.342.21-.342.184-.368.184-.395.158-.421.158-.421.131-.447.132-.473.105-.5.079-.5.079-.526.079-.552.026-.579.053h-1.21Z" transform="translate(-260.161 -119.026)"/>
  </g>
</svg>
